<svg xmlns="http://www.w3.org/2000/svg" viewBox="0 0 2133.17 1118.83"><defs><style>.cls-1{fill:#8338ec;}</style></defs><title>Asset 9</title><g id="Layer_2" data-name="Layer 2"><g id="Layer_1-2" data-name="Layer 1"><path class="cls-1" d="M2040.11,69.59C2011.3,42.88,1969.83,36,1930.89,30.83,1829.24,17.28,1727.1,7,1624.65,2.55c-145.43-6.27-292.78-2.81-434.28,31.3-160.81,38.76-384.3,167.58-570.86,129.46-162.8-33.26-181.75,123.83-362,82-115.28-26.74-201.36,36.83-214.12,94.4-26,117.52-25.35,239.41-38,359.12C1,740.3-3.4,782.44,3.92,823.5c19.35,108.6,119.58,189.22,226.73,215.4s220,7.57,327.05-19c20.54-5.09,41.12-10.52,60.4-19.26,24.91-11.29,47-27.82,69.23-43.8,51.93-37.36,107.52-73.2,170.5-84.43C972,852.06,1082,915.15,1186.47,965.31a1656.73,1656.73,0,0,0,440.79,139.85c74.48,12.55,151,20,225.35,6.52s146.87-49.81,191.27-110.91c46.7-64.26,57.44-147,66.72-225.89,18.86-160.22,37.58-323.84,4.2-481.67-9.88-46.75-33.84-198.46-74.29-223.9"/></g></g></svg>