<svg xmlns="http://www.w3.org/2000/svg" viewBox="0 0 831.59 733.07"><defs><style>.cls-1{fill:#ff006e;}</style></defs><title>Asset 8</title><g id="Layer_2" data-name="Layer 2"><g id="Layer_1-2" data-name="Layer 1"><path class="cls-1" d="M685.3,162A140.7,140.7,0,0,0,655.9,58.1c-8.14-10.17-17.81-19.26-29.13-25.71C584.91,8.55,443.65,2.36,403.5,29S218.19-15,173.5,3c-68.41,27.53-1,87-46,162-21.14,35.23-101.25,109-114,148C-6.23,373.38-6,447.8,25.5,503c21.9,38.3,134.22,37,176.92,48.08,41.84,10.89,90.76,10.27,120.54,41.6,17.9,18.84,24.63,45.48,38.39,67.53,20.93,33.56,57.65,55,96,64.77s78.52,9,118,6.42c29.83-2,60.47-5.26,86.87-19.3C682.34,701.36,698.81,685,715,668.86c32.77-32.72,66.17-66.31,86.14-108.1,15.19-31.8,21.89-67,26.2-101.93,4.86-39.5,6.82-79.82-.81-118.87s-25.55-77-55.41-103.32c-30.83-27.15-68.33-38.12-86.08-75.17"/></g></g></svg>