<svg xmlns="http://www.w3.org/2000/svg" viewBox="0 0 1220.62 1250.52"><defs><style>.cls-1{fill:#3a86ff;}</style></defs><title>Asset 7</title><g id="Layer_2" data-name="Layer 2"><g id="Layer_1-2" data-name="Layer 1"><path class="cls-1" d="M775.44,1171c-84.05,26.08-148.61-27.3-234-6-82,20.46-166.53,88.69-251,85.4a486.05,486.05,0,0,1-182.94-43.66c-31.1-14.25-62.53-33.81-76.28-65.13-6.89-15.68-8.73-33.06-9.83-50.14-4.46-68.79,1.65-138-3.61-206.7C14,835.68,4.49,787.13,1.33,738c-2.65-41.07-.83-82.28,1-123.39L25.52,91.07c.73-16.63,1.77-34.23,11.09-48C52.29,19.83,84.4,16.16,112.37,14.8q551.9-26.92,1104.72-4.87s4.35,86.95,3.4,132.25a244.88,244.88,0,0,1-43.93,134.34c-18.62,26.59-42.62,49.54-57.77,78.25-38.84,73.58-11,163.56-21.14,246.14-2.76,22.55-8.65,45.24-21.54,63.94-13.77,20-34.48,34-50.91,51.86-31.73,34.5-46,81.6-53.4,127.88s-7.28,94-20.26,139.06C919.44,1095,832.94,1153.17,775.44,1171Z"/></g></g></svg>