<svg id="Layer_1" data-name="Layer 1" xmlns="http://www.w3.org/2000/svg" viewBox="0 0 100 100"><defs><style>.cls-1{fill:#11b5d3;}</style></defs><title>current-weather-blob</title><path class="cls-1" d="M63,6C54.14,4.08,54.94.05,47,0,33.37-.08,9.32,3.43,6,13c-2.44,7,11.23,12,8,19C10.55,39.49.05,42,0,49c0,7.55,8.4,6.92,8,27-.26,13.22-5.09,23.6,1,24,12,.78,34.77-17.46,53-11,7.85,2.78,8.45,8,15,8,9.92,0,23-13,23-25,0-13-13.14-16.14-11-28,1.48-8.21,3.06-5.84,5-16,.22-1.17,2.49-13.8-4-19C83.2,3.55,79.72,9.61,63,6Z"/></svg>