<svg id="Layer_1" data-name="Layer 1" xmlns="http://www.w3.org/2000/svg" xmlns:xlink="http://www.w3.org/1999/xlink" viewBox="0 0 100 100"><defs><style>.cls-1{fill:url(#linear-gradient);}</style><linearGradient id="linear-gradient" x1="50" y1="8" x2="50" y2="100" gradientUnits="userSpaceOnUse"><stop offset="0" stop-color="#89919c"/><stop offset="0.08" stop-color="#7f8791"/><stop offset="0.27" stop-color="#6d747e"/><stop offset="0.47" stop-color="#626972"/><stop offset="0.67" stop-color="#5e656e"/><stop offset="0.78" stop-color="#606871"/><stop offset="0.88" stop-color="#67707c"/><stop offset="0.97" stop-color="#737d8d"/><stop offset="1" stop-color="#798496"/></linearGradient></defs><title>dark-cloud-3</title><path class="cls-1" d="M47.66,27c-9.4,1.45-3.42-13.85-12.43-18.15-7.32-3.5-20.88,4.54-25.88,16A28.21,28.21,0,0,0,7.28,38.73c-.52.39-7.81,6.07-7.25,15,.49,7.83,6.89,14.75,15.53,16C3,78.16,2.9,83.82,3.14,85.72c1.21,9.61,22.41,16,39.34,13.88A54.06,54.06,0,0,0,69.4,87.85c2.53,2.6,11,10.73,18.64,8.55,10.64-3,16.06-24.93,8.28-39.52C88.91,43,72.38,41.06,70.44,40.86c14.79-20,3.7-19.5-7.25-18.15C55,23.72,55.93,25.71,47.66,27Z"/></svg>