<svg id="Layer_1" data-name="Layer 1" xmlns="http://www.w3.org/2000/svg" xmlns:xlink="http://www.w3.org/1999/xlink" viewBox="0 0 200 47.83"><defs><style>.cls-1{fill:url(#linear-gradient);}</style><linearGradient id="linear-gradient" x1="100" y1="47.92" x2="100" y2="0.61" gradientUnits="userSpaceOnUse"><stop offset="0" stop-color="#a6bbbf"/><stop offset="0.06" stop-color="#aec4c9"/><stop offset="0.17" stop-color="#b6ccd1"/><stop offset="0.34" stop-color="#b8cfd4"/><stop offset="0.53" stop-color="#bed6db"/><stop offset="0.79" stop-color="#cee8ed"/><stop offset="0.87" stop-color="#d6f1f6"/><stop offset="1" stop-color="#defaff"/></linearGradient></defs><title>large-cloud-2</title><path class="cls-1" d="M182.54,8.91C152.36,6.84,148.69,1,139,5.8c-9,4.44-13.18,13.07-16.59,11.41-1.91-.94-2.17-4.39-2.08-7.26C111,3.72,104.31.65,90.23.61c-5.4,0-12.56,0-19.7,4.15C62.18,9.65,62,15.49,56,18.24c-4.9,2.24-13.18,2.21-28-8.29C24.64,7.39,16.65,2.11,6.22,2.69A28.83,28.83,0,0,0,0,3.72C1.87,5.94,6,23.91,10.37,27.58c11.15,9.4,15.87,1.06,30.08,8.29,18.75,9.54,27,9.34,38.37,11.41,20,3.63,15-9.42,41.49-9.33,20.8.07,23,8.82,43.56,6.22,5.76-.73,22.09-3,31.12-15.56.84-1.17,7.31-10.14,4.15-15.55C197,9.39,191.71,9.54,182.54,8.91Z"/></svg>