<svg id="Layer_1" data-name="Layer 1" xmlns="http://www.w3.org/2000/svg" xmlns:xlink="http://www.w3.org/1999/xlink" viewBox="0 0 200 100"><defs><style>.cls-1{fill:url(#linear-gradient);}</style><linearGradient id="linear-gradient" x1="100.01" y1="34" x2="100.01" y2="100" gradientUnits="userSpaceOnUse"><stop offset="0" stop-color="#acbdd6"/><stop offset="0.03" stop-color="#a5b5cd"/><stop offset="0.08" stop-color="#909eb3"/><stop offset="0.13" stop-color="#798496"/><stop offset="0.16" stop-color="#6c7586"/><stop offset="0.22" stop-color="#5b6371"/><stop offset="0.29" stop-color="#4f5662"/><stop offset="0.37" stop-color="#484e5a"/><stop offset="0.5" stop-color="#464c57"/><stop offset="0.65" stop-color="#525966"/><stop offset="0.93" stop-color="#717b8c"/><stop offset="1" stop-color="#798496"/></linearGradient></defs><title>large-dark-cloud-1</title><path class="cls-1" d="M59.52,44.2c-17.79-2.37-26,1.47-30.2,5.59-2.54,2.48-4.84,6.27-10.07,7.83-5.43,1.62-7.95-1-12.3,1.12C2.34,61-.93,66.82.24,71,.92,73.49,2.62,73.63,7,77.75c6.66,6.33,5.71,8.88,9,10.06,6.5,2.38,11.59-7.48,19-5.59,4.29,1.1,3.68,4.67,10.07,10.07C50.57,97,60.44,102.23,66.23,99c3.3-1.84,2.12-4.68,6.71-9a23.81,23.81,0,0,1,11.18-5.59c4.35-1,7.48-.44,19,2.24C120,90.62,119.92,91,123.27,91.17c9.11.43,10.19-2.47,20.13-3.36,14.25-1.26,15.57,4.39,28,3.36,11.07-.92,24.91-6.67,28-16.78,1.41-4.66.69-10.82-2.23-12.3-3.65-1.85-8,5-13.42,3.36-4.11-1.22-3.24-5.62-8.95-10.07a22.29,22.29,0,0,0-13.42-4.47c-5.06.15-6.51,2.32-13.43,4.47a63.86,63.86,0,0,1-14.54,2.24c-18.49.84-27.86-21.57-47-23.49C80.65,33.55,71.6,34.56,59.52,44.2Z"/></svg>