<svg id="Layer_1" data-name="Layer 1" xmlns="http://www.w3.org/2000/svg" xmlns:xlink="http://www.w3.org/1999/xlink" viewBox="0 0 200 100"><defs><style>.cls-1{fill:url(#linear-gradient);}</style><linearGradient id="linear-gradient" x1="100" y1="52.78" x2="100" y2="100.09" gradientUnits="userSpaceOnUse"><stop offset="0" stop-color="#89919c"/><stop offset="0.08" stop-color="#7f8791"/><stop offset="0.27" stop-color="#6d747e"/><stop offset="0.47" stop-color="#626972"/><stop offset="0.67" stop-color="#5e656e"/><stop offset="0.78" stop-color="#606871"/><stop offset="0.88" stop-color="#67707c"/><stop offset="0.97" stop-color="#737d8d"/><stop offset="1" stop-color="#798496"/></linearGradient></defs><title>large-dark-cloud-2</title><path class="cls-1" d="M182.54,61.07C152.36,59,148.69,53.18,139,58,130,62.41,125.8,71,122.39,69.37c-1.91-.93-2.17-4.38-2.08-7.26-9.33-6.22-16-9.29-30.08-9.33-5.4,0-12.56,0-19.7,4.15C62.18,61.82,62,67.66,56,70.41c-4.9,2.24-13.18,2.2-28-8.3-3.36-2.55-11.35-7.84-21.78-7.26a28.81,28.81,0,0,0-6.22,1C1.87,58.1,6,76.08,10.37,79.74c11.15,9.4,15.87,1.07,30.08,8.3,18.75,9.54,27,9.34,38.37,11.41,20,3.63,15-9.43,41.49-9.33,20.8.07,23,8.82,43.56,6.22,5.76-.73,22.09-3,31.12-15.56.84-1.17,7.31-10.14,4.15-15.56C197,61.55,191.71,61.7,182.54,61.07Z"/></svg>