<svg id="Layer_1" data-name="Layer 1" xmlns="http://www.w3.org/2000/svg" xmlns:xlink="http://www.w3.org/1999/xlink" viewBox="0 0 200 89.5"><defs><style>.cls-1{fill:url(#linear-gradient);}</style><linearGradient id="linear-gradient" x1="100.06" y1="89.5" x2="100.06" y2="0.59" gradientUnits="userSpaceOnUse"><stop offset="0" stop-color="#a6bbbf"/><stop offset="0.06" stop-color="#aec4c9"/><stop offset="0.17" stop-color="#b6ccd1"/><stop offset="0.34" stop-color="#b8cfd4"/><stop offset="0.53" stop-color="#bed6db"/><stop offset="0.79" stop-color="#cee8ed"/><stop offset="0.87" stop-color="#d6f1f6"/><stop offset="1" stop-color="#defaff"/></linearGradient></defs><title>large-cloud-3</title><path class="cls-1" d="M91.46,8.68C73.86-.8,48.7-2.94,34.18,7.66c-.52.38-4.7,4-13.07,11.25C10.47,28.14,8.85,29.68,7,32.21A38.53,38.53,0,0,0,0,52.67C-.32,67.19,11.41,82,29.15,89.5c5.23-4.49,15.77-13,26.13-17.39,2.4-1,4.64-1.74,7-1,5,1.49,5.11,7.59,10.05,11.25,3.09,2.29,6.38,2.37,14.07,2,17.33-.72,22.92-2,30.15-2,11.37,0,14.1,3.19,25.12,5.11,4.55.8,38.7,6.75,52.26-11.25,13-17.31,3.74-52.38-13.07-59.33C162,9,143,40.65,118.6,32.21,105.67,27.74,109.05,18.16,91.46,8.68Z"/></svg>