<svg id="Layer_1" data-name="Layer 1" xmlns="http://www.w3.org/2000/svg" xmlns:xlink="http://www.w3.org/1999/xlink" viewBox="0 0 200 66.19"><defs><style>.cls-1{fill:url(#linear-gradient);}</style><linearGradient id="linear-gradient" x1="100.01" y1="66.19" x2="100.01" y2="0.19" gradientUnits="userSpaceOnUse"><stop offset="0" stop-color="#a6bbbf"/><stop offset="0.06" stop-color="#aec4c9"/><stop offset="0.17" stop-color="#b6ccd1"/><stop offset="0.34" stop-color="#b8cfd4"/><stop offset="0.53" stop-color="#bed6db"/><stop offset="0.79" stop-color="#cee8ed"/><stop offset="0.87" stop-color="#d6f1f6"/><stop offset="1" stop-color="#defaff"/></linearGradient></defs><title>large-cloud-1</title><path class="cls-1" d="M59.52,10.38C41.73,8,33.52,11.86,29.32,16c-2.54,2.48-4.84,6.26-10.07,7.82-5.43,1.63-7.95-1-12.3,1.12C2.34,27.14-.93,33,.24,37.23.92,39.68,2.62,39.82,7,43.94c6.66,6.32,5.71,8.88,9,10.06,6.5,2.38,11.59-7.48,19-5.59,4.29,1.1,3.68,4.67,10.07,10.07,5.59,4.73,15.46,9.93,21.25,6.71,3.3-1.85,2.12-4.68,6.71-8.95a23.61,23.61,0,0,1,11.18-5.59c4.35-1,7.48-.45,19,2.23,16.88,3.93,16.78,4.32,20.13,4.48,9.11.43,10.19-2.48,20.13-3.36,14.25-1.26,15.57,4.39,28,3.36,11.07-.92,24.91-6.68,28-16.78,1.41-4.67.69-10.82-2.23-12.3-3.65-1.85-8,5-13.42,3.35-4.11-1.21-3.24-5.61-8.95-10.06a22.35,22.35,0,0,0-13.42-4.48c-5.06.16-6.51,2.32-13.43,4.48a63.56,63.56,0,0,1-14.54,2.23c-18.49.85-27.86-21.56-47-23.48C80.65-.26,71.6.75,59.52,10.38Z"/></svg>