<svg id="Layer_1" data-name="Layer 1" xmlns="http://www.w3.org/2000/svg" xmlns:xlink="http://www.w3.org/1999/xlink" viewBox="0 0 100 92.5"><defs><style>.cls-1{fill:url(#linear-gradient);}</style><linearGradient id="linear-gradient" x1="50" y1="0.5" x2="50" y2="92.5" gradientUnits="userSpaceOnUse"><stop offset="0" stop-color="#defaff"/><stop offset="0.13" stop-color="#d6f1f6"/><stop offset="0.21" stop-color="#cee8ed"/><stop offset="0.47" stop-color="#bed6db"/><stop offset="0.66" stop-color="#b8cfd4"/><stop offset="0.83" stop-color="#b6ccd1"/><stop offset="0.94" stop-color="#aec4c9"/><stop offset="1" stop-color="#a6bbbf"/></linearGradient></defs><title>cloud-3</title><path class="cls-1" d="M47.66,19.48c-9.4,1.45-3.42-13.85-12.43-18.15-7.32-3.5-20.88,4.54-25.88,16A28.21,28.21,0,0,0,7.28,31.23c-.52.39-7.81,6.07-7.25,15C.52,54,6.92,60.93,15.56,62.2,3,70.66,2.9,76.32,3.14,78.22c1.21,9.61,22.41,16,39.34,13.88A54.06,54.06,0,0,0,69.4,80.35C71.93,83,80.38,91.08,88,88.9c10.64-3,16.06-24.93,8.28-39.52-7.41-13.89-23.94-15.82-25.88-16,14.79-20,3.7-19.5-7.25-18.15C55,16.22,55.93,18.21,47.66,19.48Z"/></svg>