<svg id="Layer_1" data-name="Layer 1" xmlns="http://www.w3.org/2000/svg" xmlns:xlink="http://www.w3.org/1999/xlink" viewBox="0 0 100 100"><defs><style>.cls-1{fill:url(#linear-gradient);}</style><linearGradient id="linear-gradient" x1="46.37" x2="46.37" y2="100" gradientUnits="userSpaceOnUse"><stop offset="0" stop-color="#b6c8e3"/><stop offset="0.07" stop-color="#afc0da"/><stop offset="0.19" stop-color="#9baac0"/><stop offset="0.21" stop-color="#98a6bc"/><stop offset="0.22" stop-color="#95a3b8"/><stop offset="0.36" stop-color="#737d8e"/><stop offset="0.48" stop-color="#5a6270"/><stop offset="0.59" stop-color="#4b525e"/><stop offset="0.66" stop-color="#464c57"/><stop offset="0.78" stop-color="#484e5a"/><stop offset="0.85" stop-color="#4f5662"/><stop offset="0.91" stop-color="#5b6371"/><stop offset="0.97" stop-color="#6c7686"/><stop offset="1" stop-color="#798496"/></linearGradient></defs><title>dark-cloud-4</title><path class="cls-1" d="M36.69,20.47c-21.36-2-20.52,1.2-25.7,5.31C4,31.32.34,41.82,2.42,50.25s9.37,12.29,7.5,17C8.27,71.45,1.79,70.32.28,74.71c-1.73,5,5.05,11.45,6.43,12.76a26.93,26.93,0,0,0,11.78,6.38C31,97,41.88,90.08,44.19,88.53A20.89,20.89,0,0,0,51.69,97c9.26,5.8,21.61,2.19,28.92-3.19,9.69-7.13,11.43-18,11.78-20.21,1.17-7.32-.65-13.11-3.22-21.27a84.75,84.75,0,0,0-7.49-17c4-4.76,11.79-15.29,8.56-23.4C84-3.69,37.42-3.16,35.62,8.77,34.82,14.11,34.48,14.05,36.69,20.47Z"/></svg>