<svg id="Layer_1" data-name="Layer 1" xmlns="http://www.w3.org/2000/svg" xmlns:xlink="http://www.w3.org/1999/xlink" viewBox="0 0 200 100"><defs><style>.cls-1{fill:url(#linear-gradient);}</style><linearGradient id="linear-gradient" x1="100.06" y1="11.09" x2="100.06" y2="100" gradientUnits="userSpaceOnUse"><stop offset="0" stop-color="#b6c8e3"/><stop offset="0.07" stop-color="#afc0da"/><stop offset="0.19" stop-color="#9baac0"/><stop offset="0.21" stop-color="#98a6bc"/><stop offset="0.22" stop-color="#95a3b8"/><stop offset="0.36" stop-color="#737d8e"/><stop offset="0.48" stop-color="#5a6270"/><stop offset="0.59" stop-color="#4b525e"/><stop offset="0.66" stop-color="#464c57"/><stop offset="0.78" stop-color="#484e5a"/><stop offset="0.85" stop-color="#4f5662"/><stop offset="0.91" stop-color="#5b6371"/><stop offset="0.97" stop-color="#6c7686"/><stop offset="1" stop-color="#798496"/></linearGradient></defs><title>large-dark-cloud-3</title><path class="cls-1" d="M91.46,19.18c-17.6-9.48-42.76-11.62-57.28-1-.52.38-4.7,4-13.07,11.25C10.47,38.64,8.85,40.18,7,42.71A38.53,38.53,0,0,0,0,63.17C-.32,77.69,11.41,92.46,29.15,100c5.23-4.49,15.77-13,26.13-17.39,2.4-1,4.64-1.74,7-1,5,1.49,5.11,7.59,10.05,11.25,3.09,2.29,6.38,2.37,14.07,2,17.33-.72,22.92-2,30.15-2,11.37,0,14.1,3.19,25.12,5.11,4.55.8,38.7,6.75,52.26-11.25,13-17.31,3.74-52.38-13.07-59.33C162,19.54,143,51.15,118.6,42.71,105.67,38.24,109.05,28.66,91.46,19.18Z"/></svg>