<svg id="Layer_1" data-name="Layer 1" xmlns="http://www.w3.org/2000/svg" xmlns:xlink="http://www.w3.org/1999/xlink" viewBox="0 0 200 69.83"><defs><style>.cls-1{fill:url(#linear-gradient);}</style><linearGradient id="linear-gradient" x1="83.25" y1="-363.75" x2="83.25" y2="-294.78" gradientTransform="translate(183.25 -293.88) rotate(180)" gradientUnits="userSpaceOnUse"><stop offset="0" stop-color="#defaff"/><stop offset="0.13" stop-color="#d6f1f6"/><stop offset="0.21" stop-color="#cee8ed"/><stop offset="0.47" stop-color="#bed6db"/><stop offset="0.66" stop-color="#b8cfd4"/><stop offset="0.79" stop-color="#bbd0d5"/><stop offset="0.87" stop-color="#c3d5d8"/><stop offset="0.94" stop-color="#d2dcde"/><stop offset="1" stop-color="#e6e6e6"/></linearGradient></defs><title>large-cloud-4</title><path class="cls-1" d="M86.5,58.83c17.64,9.48,71.52,12.44,82.43,10.46s22.21-9.19,24-11.72A38.45,38.45,0,0,0,200,37.11c.33-14.51-14-32.78-33.06-29.82-6.83,1-12,6-22.33,10.39-2.41,1-4.66,1.74-7,1-5-1.5-21.71-14.6-27.75-13.41-12.08,2.36-26.91,4.06-32.07,3-11.16-2.31-19-4.08-30.07-6C43.1,1.49,19.91-3.85,5.6,13.58-7.24,29.23,3.83,52.48,20.35,61.83,38.19,71.93,68.88,49.36,86.5,58.83Z"/></svg>