<svg id="Layer_1" data-name="Layer 1" xmlns="http://www.w3.org/2000/svg" xmlns:xlink="http://www.w3.org/1999/xlink" viewBox="0 0 200 100"><defs><style>.cls-1{fill:url(#linear-gradient);}</style><linearGradient id="linear-gradient" x1="83.25" y1="695.39" x2="83.25" y2="626.42" gradientTransform="translate(183.25 726.45) rotate(180)" gradientUnits="userSpaceOnUse"><stop offset="0" stop-color="#b6c8e3"/><stop offset="0.07" stop-color="#afc0da"/><stop offset="0.19" stop-color="#9baac0"/><stop offset="0.21" stop-color="#98a6bc"/><stop offset="0.22" stop-color="#95a3b8"/><stop offset="0.36" stop-color="#737d8e"/><stop offset="0.48" stop-color="#5a6270"/><stop offset="0.59" stop-color="#4b525e"/><stop offset="0.66" stop-color="#464c57"/><stop offset="0.78" stop-color="#484e5a"/><stop offset="0.85" stop-color="#4f5662"/><stop offset="0.91" stop-color="#5b6371"/><stop offset="0.97" stop-color="#6c7686"/><stop offset="1" stop-color="#798496"/></linearGradient></defs><title>large-dark-cloud-4</title><path class="cls-1" d="M86.5,89c17.64,9.48,71.52,12.43,82.43,10.45s22.21-9.18,24-11.71A38.48,38.48,0,0,0,200,67.28c.33-14.51-14-32.78-33.06-29.83-6.83,1.06-12,6-22.33,10.39-2.41,1-4.66,1.75-7,1-5-1.5-21.71-14.6-27.75-13.42-12.08,2.37-26.91,4.07-32.07,3-11.16-2.3-19-4.08-30.07-6-4.56-.79-27.75-6.14-42.06,11.3C-7.24,59.4,3.83,82.65,20.35,92,38.19,102.09,68.88,79.53,86.5,89Z"/></svg>